<?xml version="1.0" encoding="UTF-8"?>
<svg width="240px" height="89px" viewBox="0 0 240 89" version="1.1" xmlns="http://www.w3.org/2000/svg" xmlns:xlink="http://www.w3.org/1999/xlink">
    <!-- Generator: Sketch 46.2 (44496) - http://www.bohemiancoding.com/sketch -->
    <title>embrace_logo-sm</title>
    <desc>Created with Sketch.</desc>
    <defs></defs>
    <g id="Homepage" stroke="none" stroke-width="1" fill="none" fill-rule="evenodd">
        <g id="homepage-mobile" transform="translate(-68.000000, -726.000000)" fill="#A7294C">
            <g id="embrace_logo-sm" transform="translate(68.000000, 726.000000)">
                <path d="M14.9500412,16.8188976 C26.802551,16.8188976 28.6880466,24.8855457 28.6880466,34.4829384 C28.6880466,35.6642094 28.6198846,36.7785598 28.5531627,37.889936 L7.60966458,37.889936 C7.74454856,43.1052745 9.56284222,46.5137593 16.4304049,46.5137593 C20.6746902,46.5137593 24.1754335,45.7483869 27.1390409,44.4278221 L27.1390409,51.1030192 C23.2998876,52.7730578 18.9231185,53.2598425 15.2865311,53.2598425 C4.04123927,53.2598425 0,46.3055621 0,35.0401136 C0,23.8420814 3.97307725,16.8188976 14.9500412,16.8188976 M7.60966458,32.4659046 L21.0779021,32.4659046 C21.0779021,27.7368552 20.8086141,23.5649809 14.9500412,23.5649809 C9.42843825,23.5649809 7.87943254,27.2500704 7.60966458,32.4659046" id="Fill-1"></path>
                <path d="M75.0484675,27.6999806 C75.0484675,24.4833635 73.2355716,23.3204252 70.2829773,23.3204252 C66.9930665,23.3204252 64.777305,24.346289 63.0328293,25.4414217 C63.1672774,26.6746046 63.2337838,27.8370551 63.2337838,29.2048735 L63.2337838,51.8582677 L55.7166536,51.8582677 L55.7166536,27.6999806 C55.7166536,24.4833635 53.9721779,23.3204252 50.9511633,23.3204252 C47.8636424,23.3204252 45.6478809,24.2784834 43.9019698,25.3043472 L43.9019698,51.8582677 L36.3848397,51.8582677 L36.3848397,17.6398813 L40.8144489,17.6398813 L42.0230461,20.3779571 C44.8426279,18.1189105 48.8698499,16.8188976 52.1578467,16.8188976 C56.6558762,16.8188976 59.3414883,18.1189105 60.7505614,20.2408826 C63.771576,18.0511049 67.7983196,16.8188976 71.4896606,16.8188976 C79.4115704,16.8188976 82.5655977,21.198453 82.5655977,27.6999806 L82.5655977,51.8582677 L75.0484675,51.8582677 L75.0484675,27.6999806" id="Fill-2"></path>
                <path d="M118.250729,34.0279104 C118.250729,45.187831 114.692334,51.8582677 105.072551,51.8582677 C100.658375,51.8582677 97.2967823,50.4971125 94.3978367,48.3180999 L93.2118618,51.0408955 L88.8629738,51.0408955 L88.8629738,0 L96.2427911,0 L96.2427911,18.8519513 C98.614741,17.2870594 101.777654,16.197068 105.072551,16.197068 C114.692334,16.197068 118.250729,22.9344468 118.250729,34.0279104 M96.2427911,24.6361334 L96.2427911,43.4192023 C97.5607498,44.1681773 99.866473,45.3930229 103.35958,45.3930229 C109.81692,45.3930229 110.806094,40.3568456 110.806094,34.0279104 C110.806094,27.7659173 109.81692,22.6623128 103.35958,22.6623128 C99.866473,22.6623128 97.5607498,23.8871585 96.2427911,24.6361334" id="Fill-3"></path>
                <path d="M144.83965,23.7994543 C144.041983,23.5253053 142.71459,23.3882307 141.186004,23.3882307 C137.268678,23.3882307 134.345951,24.3472646 132.685762,25.4414217 L132.685762,51.8582677 L125.247813,51.8582677 L125.247813,17.6398813 L129.630958,17.6398813 L130.826748,20.3779571 C133.283184,18.3247662 137.002631,16.8188976 141.319027,16.8188976 C142.71459,16.8188976 143.909907,17.0237777 144.83965,17.2301212 L144.83965,23.7994543" id="Fill-4"></path>
                <path d="M160.847192,23.4950861 C156.48969,23.4950861 152.93554,24.5370633 150.388805,25.5810233 L150.388805,18.83494 C153.001968,17.6531733 157.428288,16.8188976 161.383875,16.8188976 C172.378945,16.8188976 174.927114,21.8250476 174.927114,29.1972094 L174.927114,52.4240797 L170.502228,52.4240797 L169.295049,49.6421692 C166.613069,51.9372949 162.8582,53.2598425 159.170715,53.2598425 C150.523095,53.2598425 147.638484,47.6950302 147.638484,42.1322007 C147.638484,34.6207451 152.331951,31.4224404 159.908594,30.7963618 L167.418332,30.1702832 L167.418332,28.4318371 C167.418332,24.8845542 165.808761,23.4950861 160.847192,23.4950861 M160.377893,36.3611741 C157.025417,36.7770727 155.080838,38.0981332 155.080838,41.7143193 C155.080838,44.3574317 156.153725,46.8612502 160.243603,46.8612502 C163.260592,46.8612502 165.339462,45.9570797 167.418332,44.5656288 L167.418332,35.5254113 L160.377893,36.3611741" id="Fill-5"></path>
                <path d="M196.77135,46.3743718 C200.730201,46.3743718 203.256548,45.7487804 205.714286,44.7751977 L205.714286,51.5213727 C203.050722,52.7031554 199.842184,53.2598425 196.294011,53.2598425 C184.211145,53.2598425 180.524781,45.8880761 180.524781,35.0388744 C180.524781,24.1891769 184.211145,16.8188976 196.294011,16.8188976 C199.842184,16.8188976 203.050722,17.3740976 205.714286,18.5573675 L205.714286,25.3035425 C203.256548,24.3289683 200.730201,23.7028812 196.77135,23.7028812 C190.149422,23.7028812 188.238605,28.2926993 188.238605,35.0388744 C188.238605,41.7850494 190.149422,46.3743718 196.77135,46.3743718" id="Fill-6"></path>
                <path d="M226.262475,16.8188976 C238.114984,16.8188976 240,24.8855457 240,34.4829384 C240,35.6642094 239.931838,36.7785598 239.865116,37.889936 L218.922098,37.889936 C219.056982,43.1052745 220.875276,46.5137593 227.744278,46.5137593 C231.987124,46.5137593 235.487867,45.7483869 238.450994,44.4278221 L238.450994,51.1030192 C234.611361,52.7730578 230.235072,53.2598425 226.598484,53.2598425 C215.353193,53.2598425 211.311953,46.3055621 211.311953,35.0401136 C211.311953,23.8420814 215.285511,16.8188976 226.262475,16.8188976 M218.922098,32.4659046 L232.389855,32.4659046 C232.389855,27.7368552 232.122008,23.5649809 226.262475,23.5649809 C220.740392,23.5649809 219.191386,27.2500704 218.922098,32.4659046" id="Fill-7"></path>
                <g id="Group-8" transform="translate(38.000000, 65.000000)">
                    <path d="M1.75137406,16.992126 L1.75137406,8.33347979 L0,8.33347979 L0,7.83838566 L1.75137406,7.63713906 L1.75137406,5.65401203 C1.75137406,3.87763263 2.86340888,2.97637795 5.05608858,2.97637795 C5.3455223,2.97637795 6.02779189,3.01351001 6.21936286,3.05110049 L6.29737609,3.06714521 L6.29737609,3.75477594 L6.18427998,3.7359807 C5.97886052,3.70251601 5.45400224,3.66492553 5.05608858,3.66492553 C3.33656608,3.66492553 2.50057809,4.31496578 2.50057809,5.65401203 L2.50057809,7.64447379 L5.65157422,7.64447379 L5.65157422,8.33347979 L2.50057809,8.33347979 L2.50057809,16.992126 L1.75137406,16.992126" id="Fill-8"></path>
                    <path d="M4.99930348,3.1676436 C5.26796287,3.1676436 5.92886496,3.20336461 6.10841899,3.23998995 L6.10841899,3.72697129 C5.89349148,3.69034595 5.37542662,3.65552928 4.99930348,3.65552928 C3.49749749,3.65552928 2.42509876,4.16014504 2.42509876,5.71242632 L2.42509876,7.77203636 L5.48199485,7.77203636 L5.48199485,8.2590177 L2.42509876,8.2590177 L2.42509876,16.8008603 L1.88777998,16.8008603 L1.88777998,8.2590177 L0.18940487,8.2590177 L0.18940487,7.95199789 L1.88777998,7.75349761 L1.88777998,5.71242632 C1.88777998,4.08870302 2.85361048,3.1676436 4.99930348,3.1676436 M4.99930348,2.97637795 C3.90541199,2.97637795 3.06988129,3.21421657 2.51689072,3.68401565 C1.97330322,4.1465801 1.69837511,4.8298009 1.69837511,5.71242632 L1.69837511,7.5834837 L0.167016587,7.76208874 L0,7.78198398 L0,8.45163985 L1.69837511,8.45163985 L1.69837511,16.992126 L2.61450363,16.992126 L2.61450363,8.45163985 L5.67229525,8.45163985 L5.67229525,7.58077071 L2.61450363,7.58077071 L2.61450363,5.71242632 C2.61450363,4.44003496 3.37167534,3.84679493 4.99930348,3.84679493 C5.38035204,3.84679493 5.88229734,3.88387243 6.07662763,3.91597612 L6.29737609,3.95260146 L6.29737609,3.08218448 L6.14513577,3.05143729 C5.94095464,3.01074247 5.25945532,2.97637795 4.99930348,2.97637795" id="Fill-9"></path>
                    <path d="M7.696793,16.992126 L7.696793,7.27592479 L8.20523854,7.27592479 L8.48117618,7.96827143 C9.47211535,7.4512748 11.0726595,7.18110236 12.1864731,7.18110236 C12.5588035,7.18110236 12.8982968,7.20063864 13.1970086,7.2397112 L13.2944606,7.25114707 L13.2944606,7.96827143 L13.1652307,7.95159412 C12.876582,7.91538053 12.5471516,7.89584425 12.1864731,7.89584425 C10.7056254,7.89584425 9.49965615,8.14409793 8.59822458,8.6310754 L8.59822458,16.992126 L7.696793,16.992126" id="Fill-10"></path>
                    <path d="M12.1224649,7.37813525 C12.4683081,7.37813525 12.7932682,7.39727825 13.0779903,7.43463046 L13.0779903,7.93748452 C12.7932682,7.90059922 12.4683081,7.88285692 12.1224649,7.88285692 C10.6983449,7.88285692 9.47898036,8.12471245 8.56165557,8.64670952 L8.56165557,16.7946262 L7.91173529,16.7946262 L7.91173529,7.47151576 L8.21734044,7.47151576 L8.50206257,8.19988376 C9.39697631,7.67648598 10.963712,7.37813525 12.1224649,7.37813525 M12.1224649,7.18110236 C11.0778046,7.18110236 9.59256361,7.43042833 8.61768318,7.90947037 L8.42056786,7.40521559 L8.36912433,7.27401597 L7.696793,7.27401597 L7.696793,16.992126 L8.77863523,16.992126 L8.77863523,8.75736543 C9.62312412,8.30820516 10.7472417,8.0798898 12.1224649,8.0798898 C12.4642333,8.0798898 12.7749319,8.0976321 13.0489578,8.1335836 L13.2944606,8.16673368 L13.2944606,7.26374412 L13.1085508,7.23853138 C12.8166979,7.20024537 12.4851163,7.18110236 12.1224649,7.18110236" id="Fill-11"></path>
                    <path d="M17.8425656,16.992126 C14.6481867,16.992126 13.9941691,15.0318089 13.9941691,12.0861423 C13.9941691,9.14236327 14.6481867,7.18110236 17.8425656,7.18110236 C21.0364884,7.18110236 21.6909621,9.14236327 21.6909621,12.0861423 C21.6909621,15.0318089 21.0364884,16.992126 17.8425656,16.992126 M17.8425656,7.88991225 C14.9879657,7.88991225 14.7517167,9.87476868 14.7517167,12.0861423 C14.7517167,14.2984597 14.9879657,16.2828442 17.8425656,16.2828442 C20.6971655,16.2828442 20.9334145,14.2984597 20.9334145,12.0861423 C20.9334145,9.87476868 20.6971655,7.88991225 17.8425656,7.88991225" id="Fill-12"></path>
                    <path d="M17.842788,7.37628678 C20.9524686,7.37628678 21.5032246,9.37207063 21.5032246,12.0866142 C21.5032246,14.8011577 20.9524686,16.7969416 17.842788,16.7969416 C14.7331075,16.7969416 14.1819066,14.8011577 14.1819066,12.0866142 C14.1819066,9.37207063 14.7331075,7.37628678 17.842788,7.37628678 M17.842788,16.2983425 C20.6321581,16.2983425 20.9524686,14.4140265 20.9524686,12.0866142 C20.9524686,9.75920182 20.6321581,7.87627342 17.842788,7.87627342 C15.0534179,7.87627342 14.7331075,9.75920182 14.7331075,12.0866142 C14.7331075,14.4140265 15.0534179,16.2983425 17.842788,16.2983425 M17.842788,7.18110236 C14.4599539,7.18110236 13.9941691,9.53857867 13.9941691,12.0866142 C13.9941691,14.6346497 14.4599539,16.992126 17.842788,16.992126 C21.2256222,16.992126 21.6909621,14.6346497 21.6909621,12.0866142 C21.6909621,9.53857867 21.2256222,7.18110236 17.842788,7.18110236 M17.842788,16.1017705 C16.6149313,16.1017705 15.8408478,15.7410031 15.4053145,14.9667407 C14.9804583,14.2123668 14.9226245,13.1360773 14.9226245,12.0866142 C14.9226245,11.037151 14.9804583,9.96132408 15.4053145,9.20695016 C15.8408478,8.43222526 16.6149313,8.07145784 17.842788,8.07145784 C19.0706447,8.07145784 19.8447283,8.43222526 20.2802615,9.20695016 C20.7046729,9.96132408 20.7629516,11.037151 20.7629516,12.0866142 C20.7629516,13.1360773 20.7046729,14.2123668 20.2802615,14.9667407 C19.8447283,15.7410031 19.0706447,16.1017705 17.842788,16.1017705" id="Fill-13"></path>
                    <path d="M36.2985381,16.992126 L36.2985381,9.69842328 C36.2985381,8.1464804 35.7287848,7.89584425 34.3665523,7.89584425 C33.302828,7.89584425 32.3689502,8.17507008 31.4336861,8.77545326 C31.4983783,9.06802094 31.5307244,9.3977552 31.5307244,9.75512614 L31.5307244,16.992126 L30.7447144,16.992126 L30.7447144,9.69842328 C30.7447144,8.1464804 30.1749611,7.89584425 28.8127286,7.89584425 C27.6491935,7.89584425 26.7975672,8.11646124 25.9759765,8.6310754 L25.9759765,16.992126 L25.1895044,16.992126 L25.1895044,7.27592479 L25.6331079,7.27592479 L25.8738552,7.96827143 C26.6626378,7.48796488 27.7993718,7.18110236 28.8127286,7.18110236 C30.0603635,7.18110236 30.8001648,7.47986447 31.1906283,8.14933937 C32.5440812,7.30832642 33.7565975,7.18110236 34.3665523,7.18110236 C36.3234908,7.18110236 37.0845481,7.90251517 37.0845481,9.75512614 L37.0845481,16.992126 L36.2985381,16.992126" id="Fill-14"></path>
                    <path d="M34.3150237,7.37813525 C36.2762398,7.37813525 36.8922453,8.12471245 36.8922453,9.80276027 L36.8922453,16.7946262 L36.3107906,16.7946262 L36.3107906,9.74673196 C36.3107906,8.14385545 35.6761458,7.88285692 34.3150237,7.88285692 C33.2075776,7.88285692 32.2628843,8.18074076 31.3195548,8.79565144 C31.3922935,9.09353527 31.4282082,9.42970512 31.4282082,9.80276027 L31.4282082,16.7946262 L30.8472081,16.7946262 L30.8472081,9.74673196 C30.8472081,8.14385545 30.2107449,7.88285692 28.8496227,7.88285692 C27.651708,7.88285692 26.7802079,8.12471245 25.9632619,8.64670952 L25.9632619,16.7946262 L25.3818072,16.7946262 L25.3818072,7.47151576 L25.6545772,7.47151576 L25.9087079,8.19988376 C26.7070146,7.67648598 27.8871994,7.37813525 28.8496227,7.37813525 C30.1202762,7.37813525 30.8112934,7.69562899 31.1554382,8.36656798 C32.2628843,7.65874369 33.4071543,7.37813525 34.3150237,7.37813525 M34.3150237,7.18110236 C33.7172028,7.18110236 32.5392912,7.30203013 31.2213576,8.09389688 C30.8072019,7.46404532 30.0643583,7.18110236 28.8496227,7.18110236 C27.8799255,7.18110236 26.7952103,7.4612439 26.0114512,7.90666895 L25.8355146,7.40521559 L25.7909622,7.27401597 L25.1895044,7.27401597 L25.1895044,16.992126 L26.1551101,16.992126 L26.1551101,8.75736543 C26.9338683,8.28252552 27.7471774,8.0798898 28.8496227,8.0798898 C30.1825587,8.0798898 30.6549053,8.33201719 30.6549053,9.74673196 L30.6549053,16.992126 L31.620511,16.992126 L31.620511,9.80276027 C31.620511,9.47312706 31.593234,9.16637207 31.5377708,8.88996575 C32.4229093,8.33715312 33.3094117,8.0798898 34.3150237,8.0798898 C35.6465958,8.0798898 36.1189424,8.33201719 36.1189424,9.74673196 L36.1189424,16.992126 L37.0845481,16.992126 L37.0845481,9.80276027 C37.0845481,7.94028593 36.2826044,7.18110236 34.3150237,7.18110236" id="Fill-15"></path>
                    <path d="M83.3748955,7.16712875 C83.0841006,7.17753372 82.5073094,7.19692479 81.9156425,7.26786775 C80.7942106,7.40218641 79.5600117,7.61075869 79.0288071,7.78527836 C78.30086,8.06242883 78.0575712,8.32964729 78.0575712,9.08684509 L78.0575712,21.1972804 C78.0575712,21.3760566 78.2236027,21.5184155 78.3939528,21.4900383 C78.5719807,21.4588234 80.5389253,21.1386342 80.7169532,21.1078922 C80.9050581,21.0771503 81.0451771,20.9120897 81.0451771,20.717233 L81.0451771,17.4164938 C81.7256181,17.5943242 82.5399398,17.706887 83.4713473,17.706887 C87.1201997,17.706887 87.6634008,15.2210459 87.6634008,12.4467034 C87.6634008,9.44392463 87.2156918,7.03848553 83.3748955,7.16712875 L83.3748955,7.16712875 Z M82.5596141,15.7176466 C81.7246583,15.7176466 81.0451771,15.5459646 81.0451771,15.5459646 L81.0466167,9.42453356 C81.0648514,9.41696631 81.5711033,9.20413745 82.7529975,9.17576026 C84.0932454,9.1431265 84.6167722,9.44392463 84.6167722,12.370558 C84.6167722,15.2210459 84.1325938,15.7176466 82.5596141,15.7176466 L82.5596141,15.7176466 Z M148.691466,3.83186399 C149.753875,3.83186399 150.710715,4.27927756 151.3782,4.99249072 L151.383478,4.98728824 L153.49726,7.06922747 C153.562521,7.13496794 153.652734,7.17516895 153.752065,7.17516895 C153.847557,7.17516895 153.933932,7.1363868 153.999193,7.07726767 L154.000632,7.07726767 L155.603843,5.49713161 L155.603843,5.49571275 C155.673423,5.43139113 155.71661,5.33963825 155.71661,5.23889925 C155.71661,5.14099797 155.675822,5.0520828 155.610561,4.98728824 L153.49726,2.9044031 L153.499659,2.90061948 C152.288973,1.65296939 150.582592,0.874015748 148.691466,0.874015748 C145.015261,0.874015748 142.035333,3.81105406 142.035333,7.43529312 C142.035333,9.44155987 142.948986,11.2340518 144.390004,12.4362984 C142.948986,13.6399639 142.035333,15.4329288 142.035333,17.4382497 C142.035333,21.0615428 145.015261,24 148.691466,24 C150.582592,24 152.288973,23.2205734 153.499659,21.9733963 L153.49726,21.9696126 L155.610561,19.8867275 C155.675822,19.8219329 155.71661,19.7330178 155.71661,19.6351165 C155.71661,19.5329586 155.673423,19.4430976 155.603843,19.378303 L155.603843,19.3768841 L154.000632,17.797221 L153.999193,17.797221 C153.933932,17.7362101 153.847557,17.6988468 153.752065,17.6988468 C153.652734,17.6988468 153.562521,17.7390478 153.49726,17.8033694 L151.383478,19.8867275 L151.3782,19.8801062 C150.710715,20.5947382 149.753875,21.0421518 148.691466,21.0421518 C146.673176,21.0421518 145.036375,19.428436 145.036375,17.4382497 C145.036375,16.4658583 145.427461,15.5847468 146.063754,14.9372741 L146.119898,14.8805197 C146.150129,14.8521425 146.18036,14.8228194 146.211551,14.7939693 L146.211551,14.7916045 L148.336849,12.6968956 C148.336849,12.6968956 148.339729,12.6931119 148.342128,12.6902742 C148.351245,12.6812881 148.360363,12.6708831 148.36948,12.6609511 C148.376198,12.6529109 148.382436,12.6462896 148.387715,12.6373035 C148.396832,12.6273715 148.40211,12.6155476 148.408828,12.6027779 C148.414107,12.5952107 148.420825,12.5862246 148.424664,12.5758196 C148.429942,12.5654146 148.432341,12.5526449 148.43618,12.5408211 C148.440499,12.5289972 148.443858,12.5185923 148.446737,12.5072414 C148.450576,12.4916339 148.450576,12.4750806 148.452016,12.4594731 C148.452975,12.450487 148.454415,12.4429198 148.454415,12.4348796 L148.454415,12.4339337 C148.454415,12.4287312 148.454415,12.4249476 148.454415,12.4192721 C148.452016,12.3998811 148.450576,12.3795441 148.446737,12.3615719 C148.443858,12.3511669 148.440499,12.3407619 148.43762,12.330357 C148.433781,12.3175872 148.429942,12.3048175 148.424664,12.2929937 C148.420825,12.2840076 148.414107,12.2750215 148.410268,12.2674542 C148.40211,12.2542115 148.396832,12.2414418 148.387715,12.2300909 C148.382436,12.2220507 148.376198,12.2159023 148.370919,12.209281 C148.361802,12.1979301 148.351245,12.1875252 148.342128,12.1771202 L148.336849,12.1719177 L145.994175,9.86296101 C145.400109,9.22352852 145.036375,8.37174011 145.036375,7.43529312 C145.036375,5.44510677 146.673176,3.83186399 148.691466,3.83186399 L148.691466,3.83186399 Z M71.7195856,7.17658781 C70.0156041,7.17658781 68.2554791,7.69068775 67.907101,7.82500641 C67.384054,7.44333332 66.5318234,7.17658781 65.3316945,7.17658781 C64.1368441,7.17658781 61.7236301,7.53603211 60.9203451,7.798994 C60.1938377,8.07519857 59.9519884,8.34241703 59.9519884,9.09677711 L59.9519884,17.1081285 C59.9519884,17.2769727 60.0681145,17.3933191 60.2619777,17.3933191 L62.622887,17.3933191 C62.8162704,17.3933191 62.9328763,17.2769727 62.9328763,17.1081285 L62.9328763,9.42453356 C62.9328763,9.42453356 64.0557478,9.17717912 64.9837963,9.17717912 C65.8739358,9.17717912 66.3000512,9.48365269 66.3000512,10.5336084 L66.3000512,17.1081285 C66.3000512,17.2769727 66.4363313,17.3933191 66.628755,17.3933191 L68.9911038,17.3933191 C69.164813,17.3933191 69.2814189,17.2769727 69.2814189,17.1081285 L69.2814189,9.42216879 C69.2814189,9.42216879 70.3452676,9.17717912 71.2550815,9.17717912 C72.1447412,9.17717912 72.6485938,9.48365269 72.6485938,10.5336084 L72.6485938,17.1081285 C72.6485938,17.2769727 72.7834343,17.3933191 72.9772976,17.3933191 L75.3382068,17.3933191 C75.5320701,17.3933191 75.6481961,17.2769727 75.6481961,17.1081285 L75.6481961,10.1325442 C75.6481961,7.74886098 74.1577522,7.17658781 71.7195856,7.17658781 L71.7195856,7.17658781 Z M163.03207,12.431096 C163.03207,12.4258935 163.03063,12.420691 163.029191,12.4169074 C163.029191,12.3975163 163.026792,12.3785982 163.022953,12.3577882 C163.020073,12.3473833 163.016235,12.3383972 163.013835,12.3265733 C163.009996,12.3152225 163.006158,12.3019798 163.000879,12.2892101 C162.99656,12.2802239 162.990322,12.2726567 162.986483,12.2631976 C162.979765,12.2518468 162.973047,12.239077 162.965369,12.2272532 C162.960091,12.219686 162.953373,12.2130646 162.947135,12.2054974 C162.937538,12.1950924 162.92842,12.1846874 162.918343,12.1742825 C162.915464,12.1719177 162.914504,12.1704988 162.913065,12.1681341 L158.221477,7.54501822 L158.220038,7.54407231 C158.155737,7.48731795 158.073681,7.45231943 157.980588,7.45231943 C157.886535,7.45231943 157.80112,7.48826386 157.737299,7.54501822 L157.735859,7.54407231 L156.123531,9.13319449 C156.05923,9.1975161 156.018922,9.28785013 156.018922,9.38575141 C156.018922,9.4775043 156.053952,9.55885222 156.111535,9.62175497 L156.110575,9.62317383 L156.123531,9.63736242 L156.124971,9.63736242 L158.959501,12.431096 L156.124971,15.2248295 C156.123531,15.2262484 156.123531,15.2262484 156.123531,15.2262484 L156.110575,15.2390181 L156.111535,15.240437 C156.053952,15.3052315 156.018922,15.3861065 156.018922,15.4764405 C156.018922,15.5757607 156.05923,15.6646758 156.123531,15.7294704 L157.735859,17.3185926 L157.737299,17.3171737 C157.80112,17.374874 157.886535,17.4112914 157.980588,17.4112914 C158.073681,17.4112914 158.155737,17.3762928 158.220038,17.3195385 L158.221477,17.3185926 C158.230595,17.3105524 158.238273,17.3015663 158.24643,17.293999 L162.913065,12.6945308 C162.914504,12.6931119 162.916904,12.6902742 162.918343,12.6893283 C162.92842,12.6789233 162.937538,12.6685184 162.947135,12.6566946 C162.952413,12.6505462 162.960091,12.6429789 162.965369,12.6349387 C162.973047,12.6235878 162.979765,12.611764 162.986483,12.5999402 C162.990322,12.5909541 162.99656,12.581968 163.000879,12.5729819 C163.006158,12.561631 163.009996,12.5498072 163.012396,12.5379833 C163.016235,12.5266325 163.020073,12.5152816 163.022953,12.5048766 C163.026792,12.4878503 163.026792,12.4722429 163.029191,12.4571084 C163.029191,12.4481223 163.03207,12.4400821 163.03207,12.4325148 L163.03063,12.431096 L163.03207,12.431096 Z M120.089914,9.19988087 C121.007405,9.19988087 121.867314,9.39473752 122.315982,9.50824624 C122.553033,9.56925718 122.668199,9.48885517 122.725783,9.29683624 C122.725783,9.29683624 122.949397,8.24167803 122.978189,8.10357575 C123.00842,7.96689232 123.029054,7.82264165 122.745457,7.68075574 C122.278073,7.44711694 120.832257,7.17989848 119.387399,7.17989848 C115.52117,7.17989848 114.466439,8.9317165 114.466439,12.4528518 C114.466439,15.955069 115.52117,17.7054681 119.387399,17.7054681 C120.832257,17.7054681 122.268956,17.4410874 122.745457,17.2065027 C122.959954,17.0991424 123.017537,17.0012411 122.978189,16.8011819 C122.946998,16.6361213 122.725783,15.6273125 122.725783,15.6273125 C122.686434,15.4352936 122.52808,15.3525268 122.315982,15.3979303 C121.867314,15.5128579 121.007405,15.7048768 120.089914,15.7048768 C118.078822,15.7048768 117.493393,14.8393728 117.493393,12.4339337 C117.493393,10.0474127 118.078822,9.19988087 120.089914,9.19988087 L120.089914,9.19988087 Z M53.1624549,7.17233123 C49.4037146,7.17233123 48.2798834,8.75625093 48.2798834,12.481229 C48.2798834,16.3187699 49.8878929,17.6936443 53.6648679,17.6936443 C55.3127058,17.6936443 56.6486349,17.3119712 57.2690934,17.0631979 C57.4389637,16.9946197 57.509503,16.8087492 57.4624768,16.6257164 L57.1875172,15.5076554 C57.137132,15.320366 56.979738,15.2508419 56.7417277,15.3142176 C56.214362,15.4570494 55.2757566,15.7266327 54.17016,15.7266327 C53.220038,15.7266327 52.5616706,15.592314 52.0760527,15.3061774 C51.514617,14.9438954 51.2439762,14.484658 51.2439762,13.6848944 L57.5003857,13.6848944 C57.8693977,13.6848944 57.9653697,13.4772681 57.9653697,13.1873479 L57.9653697,12.2712378 C57.9653697,10.5903628 57.7335975,9.3304159 57.0166872,8.47011434 C56.2810625,7.61217755 55.079494,7.17233123 53.1624549,7.17233123 L53.1624549,7.17233123 Z M51.2425366,11.9023345 C51.2425366,11.9023345 51.2492546,11.1475014 51.347146,10.4153702 C51.4781477,9.44770826 52.1413136,9.11853295 53.1442202,9.11758704 C54.1466469,9.11853295 54.8083733,9.44770826 54.939375,10.4153702 C55.0387059,11.1475014 55.0444642,11.9023345 55.0444642,11.9023345 L51.2425366,11.9023345 Z M111.93422,7.51427627 L109.590586,7.51427627 C109.393843,7.51427627 109.280116,7.627785 109.280116,7.81980393 L109.280116,17.0877915 C109.280116,17.2760268 109.392883,17.3933191 109.589146,17.3933191 L111.93422,17.3933191 C112.130482,17.3933191 112.24181,17.2717702 112.24181,17.0877915 L112.24181,7.81838507 C112.24181,7.62920386 112.122805,7.51427627 111.93422,7.51427627 L111.93422,7.51427627 Z M111.690931,2.53029726 L109.832435,2.53029726 C109.445188,2.53029726 109.280116,2.76251719 109.280116,3.16736498 L109.280116,5.28808637 C109.280116,5.69293416 109.445188,5.8324553 109.832435,5.8324553 L111.690931,5.8324553 C112.078178,5.8324553 112.243249,5.69293416 112.243249,5.28808637 L112.243249,3.16736498 C112.243249,2.76251719 112.078178,2.53029726 111.690931,2.53029726 L111.690931,2.53029726 Z M106.967673,15.7086605 C106.927365,15.5175874 106.789645,15.4376584 106.603939,15.4660355 C106.309785,15.5242088 105.826567,15.6107592 105.274248,15.6107592 C104.286217,15.6107592 104.034771,15.1851014 104.034771,14.4420922 L104.034771,9.41034497 L106.610657,9.41034497 C106.789645,9.41034497 106.920647,9.28643127 106.920647,9.12420838 L106.920647,7.80325057 C106.920647,7.63298748 106.784367,7.5180599 106.610657,7.5180599 L104.028533,7.5180599 L104.028533,4.47555306 C104.028533,4.31285722 103.885535,4.14779661 103.681594,4.18374104 C103.495889,4.21495594 101.400822,4.57865682 101.400822,4.57865682 C101.149375,4.63541119 101.069718,4.75648716 101.069718,5.02370562 L101.069718,14.5787757 C101.069718,16.8503691 102.214664,17.6922255 104.519429,17.6922255 C105.81601,17.6922255 106.73878,17.4141291 107.009901,17.3365648 L107.01086,17.3365648 C107.165375,17.2873777 107.25175,17.1483295 107.222958,16.9780664 C107.196566,16.8257755 107.01086,15.9125032 106.967673,15.7086605 L106.967673,15.7086605 Z M97.3426489,7.73088876 C96.7063551,7.37097151 95.7586324,7.17989848 94.4068679,7.17989848 C92.3391528,7.17989848 90.5228842,7.69494433 90.0977286,7.86520742 C89.9144222,7.939934 89.8477217,8.07377971 89.8827515,8.23411078 C89.9115431,8.36038924 90.178345,9.57162195 90.178345,9.57162195 C90.1980193,9.66432074 90.2791155,9.72391282 90.3750875,9.72391282 C90.4744184,9.72391282 92.5253383,9.17812503 93.7681747,9.17812503 C94.4068679,9.17812503 94.8704122,9.23629825 95.1410531,9.36919805 C95.5455747,9.55885222 95.6122752,9.88377095 95.6122752,10.396925 L95.6161141,10.9114979 L92.2422212,11.4454618 C90.8314339,11.6545071 89.2478972,11.9770611 89.2478972,14.4160798 C89.2478972,17.40467 91.7177346,17.696482 93.9591589,17.696482 C94.4394983,17.696482 95.2888498,17.6889148 96.7063551,17.40467 C98.0427641,17.1379245 98.5792471,16.8078033 98.5792471,15.4248886 L98.5792471,10.1883527 C98.5792471,9.12137067 98.309566,8.24546166 97.3426489,7.73088876 L97.3426489,7.73088876 Z M95.6161141,15.6169076 C95.3651475,15.693053 94.7538064,15.8250069 94.0392954,15.8250069 C93.2672013,15.8250069 92.2215872,15.7100793 92.2215872,14.3777706 C92.2215872,13.2346432 92.7777445,13.1405255 93.5565566,12.9872887 L95.6161141,12.6647348 L95.6161141,15.6169076 Z M132.44006,7.73088876 C131.801367,7.36860674 130.854124,7.17753372 129.499481,7.17753372 C127.430326,7.17753372 125.612618,7.69352547 125.187462,7.86520742 C125.002716,7.93851514 124.936016,8.0728338 124.971525,8.23269192 C125.000317,8.35944334 125.267119,9.57162195 125.267119,9.57256785 C125.286793,9.6657396 125.367889,9.72627759 125.464821,9.72485873 C125.563192,9.72485873 127.616512,9.17954389 128.862227,9.17954389 C129.499481,9.17954389 129.963985,9.23724416 130.235105,9.37014396 C130.640587,9.55979812 130.69961,9.88518981 130.69961,10.3997627 L130.69961,10.9143356 L127.333874,11.4482996 C125.921647,11.6587637 124.335711,11.9822635 124.335711,14.4227012 C124.335711,17.415075 126.808908,17.7054681 129.051772,17.7054681 C129.533551,17.7054681 130.384342,17.6988468 131.801367,17.415075 C133.140176,17.1483295 133.678098,16.8167894 133.678098,15.4329288 L133.678098,10.1892986 C133.678098,9.12278952 133.406977,8.24546166 132.44006,7.73088876 L132.44006,7.73088876 Z M130.719284,15.6235289 C130.466398,15.6996743 129.847379,15.8325741 129.131908,15.8325741 C128.358375,15.8325741 127.276291,15.7190654 127.276291,14.383919 C127.276291,13.2398456 127.870357,13.145728 128.64869,12.9920183 L130.719284,12.6685184 L130.719284,15.6235289 L130.719284,15.6235289 Z" id="Fill-16"></path>
                </g>
            </g>
        </g>
    </g>
</svg>