<?xml version="1.0" encoding="UTF-8"?>
<svg width="330px" height="122px" viewBox="0 0 330 122" version="1.1" xmlns="http://www.w3.org/2000/svg" xmlns:xlink="http://www.w3.org/1999/xlink">
    <!-- Generator: Sketch 46.2 (44496) - http://www.bohemiancoding.com/sketch -->
    <title>embrace_logo</title>
    <desc>Created with Sketch.</desc>
    <defs></defs>
    <g id="Embrace" stroke="none" stroke-width="1" fill="none" fill-rule="evenodd">
        <g id="Embrace-desktop" transform="translate(-135.000000, -830.000000)" fill="#A7294C">
            <g id="embrace_logo" transform="translate(135.000000, 830.000000)">
                <path d="M20.3238518,22 C36.4367606,22 39,32.8467482 39,45.751799 C39,47.3401847 38.9073371,48.8385864 38.8166318,50.3329887 L10.3449678,50.3329887 C10.528336,57.3457484 13.0002175,61.9289377 22.336334,61.9289377 C28.1062327,61.9289377 32.8653225,60.8997864 36.8942023,59.1241005 L36.8942023,68.0998463 C31.6750607,70.3454491 25.7250565,71 20.7812934,71 C5.49386765,71 0,61.6489873 0,46.5009998 C0,31.443663 5.40120472,22 20.3238518,22 M10.3449678,43.039612 L28.6543797,43.039612 C28.6543797,36.6807367 28.2882958,31.0710623 20.3238518,31.0710623 C12.8175019,31.0710623 10.7117042,36.0261858 10.3449678,43.039612" id="Fill-1"></path>
                <path d="M102.582321,36.9058611 C102.582321,32.4994571 100.069903,30.9063622 95.9780251,30.9063622 C91.418674,30.9063622 88.3479419,32.3116804 85.9303453,33.8118892 C86.1166713,35.5012112 86.2088397,37.0936378 86.2088397,38.9673952 L86.2088397,70 L75.7911603,70 L75.7911603,36.9058611 C75.7911603,32.4994571 73.3735638,30.9063622 69.1868648,30.9063622 C64.9079974,30.9063622 61.8372652,32.2187944 59.4176794,33.6241125 L59.4176794,70 L49,70 L49,23.1246554 L55.138812,23.1246554 L56.8137569,26.8755116 C60.7212984,23.7808715 66.3024586,22 70.8591573,22 C77.09279,22 80.8146686,23.7808715 82.7674448,26.6877349 C86.9541437,23.6879855 92.5346408,22 97.6503176,22 C108.628964,22 113,27.9994988 113,36.9058611 L113,70 L102.582321,70 L102.582321,36.9058611" id="Fill-2"></path>
                <path d="M163,46.5881671 C163,61.8673963 158.035545,71 144.614611,71 C138.456224,71 133.766334,69.1364202 129.721903,66.1530985 L128.067303,69.8809223 L122,69.8809223 L122,0 L132.29587,0 L132.29587,25.810514 C135.60507,23.6679949 140.017773,22.17567 144.614611,22.17567 C158.035545,22.17567 163,31.3999252 163,46.5881671 M132.29587,33.729732 L132.29587,59.445938 C134.134606,60.4713718 137.35141,62.148328 142.224779,62.148328 C151.233666,62.148328 152.6137,55.2532155 152.6137,46.5881671 C152.6137,38.0147701 151.233666,31.027342 142.224779,31.027342 C137.35141,31.027342 134.134606,32.7042982 132.29587,33.729732" id="Fill-3"></path>
                <path d="M199,31.5625783 C197.900715,31.1870249 196.071401,30.9992482 193.964819,30.9992482 C188.566254,30.9992482 184.53837,32.3130168 182.250423,33.8118892 L182.250423,70 L172,70 L172,23.1246554 L178.040521,23.1246554 L179.68847,26.8755116 C183.073745,24.0628707 188.199609,22 194.148142,22 C196.071401,22 197.718697,22.2806627 199,22.5633301 L199,31.5625783" id="Fill-4"></path>
                <path d="M221.393408,30.9770789 C215.325493,30.9770789 210.376263,32.3781644 206.82988,33.7819161 L206.82988,24.7108539 C210.468766,23.1218016 216.632511,22 222.140751,22 C237.451621,22 241,28.7314761 241,38.6443894 L241,69.8761988 L234.838252,69.8761988 L233.15723,66.135527 C229.422514,69.2216479 224.193779,71 219.058878,71 C207.016882,71 203,63.5173235 203,56.0373131 C203,45.9370996 209.535752,41.6365269 220.086391,40.7946758 L230.543861,39.9528247 L230.543861,37.6152381 C230.543861,32.8454151 228.302499,30.9770789 221.393408,30.9770789 M220.739899,48.2773523 C216.071505,48.8365867 213.363636,50.6129392 213.363636,55.4754125 C213.363636,59.0294506 214.857656,62.3961884 220.552897,62.3961884 C224.75412,62.3961884 227.64899,61.1804035 230.543861,59.3094011 L230.543861,47.1535511 L220.739899,48.2773523" id="Fill-5"></path>
                <path d="M270.929107,61.7415116 C276.272639,61.7415116 279.682622,60.9003156 283,59.591196 L283,68.6623817 C279.404806,70.2514555 275.074023,71 270.284809,71 C253.975738,71 249,61.0876183 249,46.4993334 C249,31.910382 253.975738,22 270.284809,22 C275.074023,22 279.404806,22.7465448 283,24.3376183 L283,33.408804 C279.682622,32.0983513 276.272639,31.2564887 270.929107,31.2564887 C261.991037,31.2564887 259.411876,37.4281478 259.411876,46.4993334 C259.411876,55.5705191 261.991037,61.7415116 270.929107,61.7415116" id="Fill-6"></path>
                <path d="M311.324504,22 C327.437413,22 330,32.8467482 330,45.751799 C330,47.3401847 329.907337,48.8385864 329.816632,50.3329887 L301.34562,50.3329887 C301.528989,57.3457484 304.00087,61.9289377 313.338944,61.9289377 C319.106885,61.9289377 323.865975,60.8997864 327.894202,59.1241005 L327.894202,68.0998463 C322.674408,70.3454491 316.725056,71 311.781293,71 C296.493868,71 291,61.6489873 291,46.5009998 C291,31.443663 296.401857,22 311.324504,22 M301.34562,43.039612 L319.65438,43.039612 C319.65438,36.6807367 319.290253,31.0710623 311.324504,31.0710623 C303.817502,31.0710623 301.711704,36.0261858 301.34562,43.039612" id="Fill-7"></path>
                <path d="M2.50300542,114 L2.50300542,101.644404 L0,101.644404 L0,100.937921 L2.50300542,100.650749 L2.50300542,97.8208936 C2.50300542,95.2860601 4.09228852,94 7.22599326,94 C7.63964228,94 8.61471925,94.0529862 8.88850608,94.1066265 L9,94.1295218 L9,95.1107477 L8.83836681,95.0839275 C8.54478815,95.0361745 7.7946782,94.9825342 7.22599326,94.9825342 C4.76850902,94.9825342 3.57374285,95.9101197 3.57374285,97.8208936 L3.57374285,100.661215 L8.07704149,100.661215 L8.07704149,101.644404 L3.57374285,101.644404 L3.57374285,114 L2.50300542,114" id="Fill-8"></path>
                <path d="M7.14483788,94.2729296 C7.52879693,94.2729296 8.47333618,94.3239023 8.72994881,94.3761654 L8.72994881,95.0710714 C8.42278157,95.0188083 7.68238055,94.969126 7.14483788,94.969126 C4.99850683,94.969126 3.46587031,95.6891957 3.46587031,97.9042488 L3.46587031,100.843243 L7.8346843,100.843243 L7.8346843,101.538149 L3.46587031,101.538149 L3.46587031,113.72707 L2.69795222,113.72707 L2.69795222,101.538149 L0.270691126,101.538149 L0.270691126,101.100042 L2.69795222,100.816789 L2.69795222,97.9042488 C2.69795222,95.5872504 4.07828498,94.2729296 7.14483788,94.2729296 M3.59705631,95.0097751 C2.82017918,95.669839 2.42726109,96.6447721 2.42726109,97.9042488 L2.42726109,100.574185 L0.238694539,100.829048 L0,100.857438 L0,101.813014 L2.42726109,101.813014 L2.42726109,114 L3.73656143,114 L3.73656143,101.813014 L8.10665529,101.813014 L8.10665529,100.570313 L3.73656143,100.570313 L3.73656143,97.9042488 C3.73656143,96.0885892 4.81868601,95.2420557 7.14483788,95.2420557 C7.6894198,95.2420557 8.40678328,95.294964 8.68451365,95.3407749 L9,95.393038 L9,94.1509824 L8.78242321,94.1071071 C8.49061433,94.049037 7.51663823,94 7.14483788,94 C5.58148464,94 4.38737201,94.3393877 3.59705631,95.0097751 Z" id="Fill-9"></path>
                <path d="M11,114 L11,100.135308 L11.6358217,100.135308 L11.9808875,101.123264 C13.2200776,100.385527 15.2215914,100 16.6144385,100 C17.0800454,100 17.5045889,100.027878 17.8781342,100.083633 L18,100.099951 L18,101.123264 L17.8383953,101.099466 C17.477434,101.04779 17.0654745,101.019913 16.6144385,101.019913 C14.7626076,101.019913 13.2545179,101.374162 12.127259,102.069063 L12.127259,114 L11,114" id="Fill-10"></path>
                <path d="M16.5343949,100.281159 C16.966879,100.281159 17.3732484,100.308476 17.7292994,100.361776 L17.7292994,101.079332 C17.3732484,101.026698 16.966879,101.00138 16.5343949,101.00138 C14.7535032,101.00138 13.2286624,101.3465 12.0815287,102.091372 L12.0815287,113.718174 L11.2687898,113.718174 L11.2687898,100.41441 L11.6509554,100.41441 L12.0070064,101.453767 C13.1261146,100.706896 15.0853503,100.281159 16.5343949,100.281159 M16.5343949,100 C15.2280255,100 13.3707006,100.35578 12.1515924,101.039357 L11.9050955,100.319802 L11.8407643,100.132585 L11,100.132585 L11,114 L12.3528662,114 L12.3528662,102.249274 C13.4089172,101.608338 14.8146497,101.282539 16.5343949,101.282539 C16.9617834,101.282539 17.3503185,101.307857 17.6929936,101.359159 L18,101.406463 L18,100.117927 L17.7675159,100.081949 C17.4025478,100.027316 16.9878981,100 16.5343949,100" id="Fill-11"></path>
                <path d="M25.5,114 C20.9347002,114 20,111.202694 20,106.999327 C20,102.798653 20.9347002,100 25.5,100 C30.064648,100 31,102.798653 31,106.999327 C31,111.202694 30.064648,114 25.5,114 M25.5,101.011448 C21.420301,101.011448 21.0826618,103.843771 21.0826618,106.999327 C21.0826618,110.156229 21.420301,112.987879 25.5,112.987879 C29.579699,112.987879 29.9173382,110.156229 29.9173382,106.999327 C29.9173382,103.843771 29.579699,101.011448 25.5,101.011448" id="Fill-12"></path>
                <path d="M25.5003179,100.278522 C29.9445697,100.278522 30.7316918,103.126438 30.7316918,107 C30.7316918,110.873562 29.9445697,113.721478 25.5003179,113.721478 C21.0560661,113.721478 20.2683082,110.873562 20.2683082,107 C20.2683082,103.126438 21.0560661,100.278522 25.5003179,100.278522 M25.5003179,113.009994 C29.4867927,113.009994 29.9445697,110.321139 29.9445697,107 C29.9445697,103.678861 29.4867927,100.991986 25.5003179,100.991986 C21.5138431,100.991986 21.0560661,103.678861 21.0560661,107 C21.0560661,110.321139 21.5138431,113.009994 25.5003179,113.009994 M25.5003179,100 C20.6656841,100 20,103.364039 20,107 C20,110.635961 20.6656841,114 25.5003179,114 C30.3349517,114 31,110.635961 31,107 C31,103.364039 30.3349517,100 25.5003179,100 M25.5003179,112.729493 C23.745506,112.729493 22.6392116,112.21469 22.016762,111.109843 C21.4095717,110.033377 21.3269175,108.497549 21.3269175,107 C21.3269175,105.502451 21.4095717,103.967283 22.016762,102.890817 C22.6392116,101.78531 23.745506,101.270507 25.5003179,101.270507 C27.2551298,101.270507 28.3614242,101.78531 28.9838738,102.890817 C29.5904283,103.967283 29.6737183,105.502451 29.6737183,107 C29.6737183,108.497549 29.5904283,110.033377 28.9838738,111.109843 C28.3614242,112.21469 27.2551298,112.729493 25.5003179,112.729493" id="Fill-13"></path>
                <path d="M49.8766607,114 L49.8766607,103.592132 C49.8766607,101.377562 49.0623883,101.019913 47.115531,101.019913 C45.5952917,101.019913 44.2606247,101.418358 42.9239764,102.275085 C43.0164323,102.692569 43.0626602,103.163089 43.0626602,103.673045 L43.0626602,114 L41.939321,114 L41.939321,103.592132 C41.939321,101.377562 41.1250486,101.019913 39.1781913,101.019913 C37.5153057,101.019913 36.2981897,101.334726 35.1239997,102.069063 L35.1239997,114 L34,114 L34,100.135308 L34.6339834,100.135308 L34.9780514,101.123264 C36.1053531,100.437882 37.7299355,100 39.1781913,100 C40.9612695,100 42.0185689,100.426323 42.5766063,101.381642 C44.510916,100.181544 46.2438039,100 47.115531,100 C49.9123223,100 51,101.029432 51,103.673045 L51,114 L49.8766607,114" id="Fill-14"></path>
                <path d="M47.041888,100.281159 C49.8447927,100.281159 50.7251672,101.3465 50.7251672,103.741017 L50.7251672,113.718174 L49.8941716,113.718174 L49.8941716,103.661067 C49.8941716,101.373816 48.9871584,101.00138 47.041888,101.00138 C45.459163,101.00138 44.1090388,101.42645 42.7608637,102.303907 C42.8648194,102.728977 42.9161475,103.20868 42.9161475,103.741017 L42.9161475,113.718174 L42.0858016,113.718174 L42.0858016,103.661067 C42.0858016,101.373816 41.1761896,101.00138 39.2309192,101.00138 C37.5188993,101.00138 36.2733805,101.3465 35.1058284,102.091372 L35.1058284,113.718174 L34.2748328,113.718174 L34.2748328,100.41441 L34.6646665,100.41441 L35.0278616,101.453767 C36.1687751,100.706896 37.8554558,100.281159 39.2309192,100.281159 C41.0468947,100.281159 42.0344735,100.734212 42.5263138,101.691619 C44.1090388,100.681578 45.7443914,100.281159 47.041888,100.281159 M47.041888,100 C46.1875024,100 44.5040703,100.17256 42.6205236,101.302527 C42.028626,100.40375 40.9669788,100 39.2309192,100 C37.8450602,100 36.2948213,100.399753 35.174699,101.035359 L34.9232563,100.319802 L34.8595834,100.132585 L34,100.132585 L34,114 L35.3800115,114 L35.3800115,102.249274 C36.4929868,101.571694 37.6553411,101.282539 39.2309192,101.282539 C41.1359067,101.282539 41.8109689,101.642317 41.8109689,103.661067 L41.8109689,114 L43.1909803,114 L43.1909803,103.741017 C43.1909803,103.270642 43.1519969,102.832913 43.0727307,102.43849 C44.3377413,101.649645 45.6047009,101.282539 47.041888,101.282539 C48.9449264,101.282539 49.6199885,101.642317 49.6199885,103.661067 L49.6199885,114 L51,114 L51,103.741017 C51,101.083329 49.8538888,100 47.041888,100" id="Fill-15"></path>
                <path d="M114.321623,98.7079371 C113.921233,98.7223347 113.127061,98.7491666 112.312407,98.8473321 C110.768329,99.0331922 109.068986,99.3217989 108.337581,99.5632861 C107.335285,99.9467861 107.000305,100.316543 107.000305,101.364296 L107.000305,118.121807 C107.000305,118.369184 107.228911,118.56617 107.463462,118.526903 C107.708585,118.483711 110.416832,118.040657 110.661955,117.998118 C110.920953,117.95558 111.11388,117.727182 111.11388,117.457554 L111.11388,112.890239 C112.050766,113.136307 113.171989,113.292063 114.454426,113.292063 C119.478458,113.292063 120.226381,109.852343 120.226381,106.013416 C120.226381,101.858396 119.609939,98.5299303 114.321623,98.7079371 L114.321623,98.7079371 Z M113.199078,110.539501 C112.049444,110.539501 111.11388,110.301941 111.11388,110.301941 L111.115862,101.831564 C111.140969,101.821093 111.838018,101.526597 113.465344,101.487331 C115.310705,101.442174 116.031538,101.858396 116.031538,105.908052 C116.031538,109.852343 115.364883,110.539501 113.199078,110.539501 L113.199078,110.539501 Z M204.254708,94.0928482 C205.717518,94.0928482 207.034972,94.7119455 207.954018,95.6988363 L207.961286,95.6916375 L210.87171,98.5724687 C210.961566,98.6634354 211.085779,98.7190625 211.222546,98.7190625 C211.354027,98.7190625 211.472955,98.6653987 211.562811,98.5835941 L211.564793,98.5835941 L213.772223,96.3971205 L213.772223,96.3951572 C213.868025,96.3061538 213.927489,96.179193 213.927489,96.0397979 C213.927489,95.9043295 213.871329,95.7812954 213.781473,95.6916375 L210.87171,92.8094975 L210.875013,92.804262 C209.208044,91.0778575 206.858562,90 204.254708,90 C199.193015,90 195.090011,94.064053 195.090011,99.0790028 C195.090011,101.855124 196.348001,104.33544 198.332111,105.999018 C196.348001,107.66456 195.090011,110.14553 195.090011,112.920343 C195.090011,117.933984 199.193015,122 204.254708,122 C206.858562,122 209.208044,120.921488 210.875013,119.195738 L210.87171,119.190502 L213.781473,116.308362 C213.871329,116.218705 213.927489,116.09567 213.927489,115.960202 C213.927489,115.818844 213.868025,115.694501 213.772223,115.604843 L213.772223,115.60288 L211.564793,113.41706 L211.562811,113.41706 C211.472955,113.332638 211.354027,113.280937 211.222546,113.280937 C211.085779,113.280937 210.961566,113.336565 210.87171,113.425568 L207.961286,116.308362 L207.954018,116.2992 C207.034972,117.288054 205.717518,117.907152 204.254708,117.907152 C201.475765,117.907152 199.222086,115.674213 199.222086,112.920343 C199.222086,111.574821 199.760564,110.355605 200.636664,109.459681 L200.713967,109.381148 C200.755592,109.341882 200.797217,109.301307 200.840163,109.261386 L200.840163,109.258114 L203.766444,106.359613 C203.766444,106.359613 203.770408,106.354378 203.773711,106.350451 C203.786265,106.338017 203.798818,106.323619 203.811372,106.309876 C203.820622,106.29875 203.829211,106.289588 203.836479,106.277154 C203.849032,106.263411 203.8563,106.24705 203.86555,106.22938 C203.872818,106.218909 203.882068,106.206475 203.887353,106.192077 C203.894621,106.17768 203.897925,106.16001 203.90321,106.143649 C203.909157,106.127288 203.913782,106.11289 203.917746,106.097184 C203.923032,106.075587 203.923032,106.052682 203.925014,106.031086 C203.926335,106.018651 203.928317,106.00818 203.928317,105.997055 L203.928317,105.995746 C203.928317,105.988547 203.928317,105.983312 203.928317,105.975459 C203.925014,105.948627 203.923032,105.920486 203.917746,105.895617 C203.913782,105.88122 203.909157,105.866822 203.905192,105.852424 C203.899907,105.834755 203.894621,105.817085 203.887353,105.800724 C203.882068,105.78829 203.872818,105.775855 203.867532,105.765384 C203.8563,105.74706 203.849032,105.72939 203.836479,105.713684 C203.829211,105.702558 203.820622,105.694051 203.813354,105.684889 C203.8008,105.669182 203.786265,105.654785 203.773711,105.640387 L203.766444,105.633188 L200.540862,102.438227 C199.722904,101.553429 199.222086,100.374788 199.222086,99.0790028 C199.222086,96.3251324 201.475765,94.0928482 204.254708,94.0928482 L204.254708,94.0928482 Z M98.273659,98.7210258 C95.9274809,98.7210258 93.5039998,99.4323987 93.024325,99.6182588 C92.304152,99.0901282 91.1307326,98.7210258 89.4782991,98.7210258 C87.8331333,98.7210258 84.5104271,99.2183979 83.4044,99.5822648 C82.4040864,99.9644559 82.071089,100.334213 82.071089,101.37804 L82.071089,112.463546 C82.071089,112.69718 82.2309806,112.858171 82.4979071,112.858171 L85.748596,112.858171 C86.0148618,112.858171 86.1754141,112.69718 86.1754141,112.463546 L86.1754141,101.831564 C86.1754141,101.831564 87.7214735,101.489294 88.9992849,101.489294 C90.2249004,101.489294 90.8116101,101.913369 90.8116101,103.366219 L90.8116101,112.463546 C90.8116101,112.69718 90.9992515,112.858171 91.2641958,112.858171 L94.5168669,112.858171 C94.7560436,112.858171 94.9165959,112.69718 94.9165959,112.463546 L94.9165959,101.828292 C94.9165959,101.828292 96.3813881,101.489294 97.6340926,101.489294 C98.8590473,101.489294 99.5527919,101.913369 99.5527919,103.366219 L99.5527919,112.463546 C99.5527919,112.69718 99.7384512,112.858171 100.005378,112.858171 L103.256067,112.858171 C103.522993,112.858171 103.682885,112.69718 103.682885,112.463546 L103.682885,102.811256 C103.682885,99.5128945 101.630722,98.7210258 98.273659,98.7210258 L98.273659,98.7210258 Z M224,105.99182 C224,105.984621 223.998018,105.977422 223.996036,105.972186 C223.996036,105.945355 223.992732,105.919177 223.987447,105.890382 C223.983482,105.875984 223.978197,105.86355 223.974893,105.847189 C223.969607,105.831483 223.964322,105.813158 223.957054,105.795488 C223.951108,105.783054 223.942518,105.772583 223.937233,105.759494 C223.927983,105.743788 223.918733,105.726118 223.908161,105.709757 C223.900894,105.699286 223.891644,105.690124 223.883054,105.679653 C223.86984,105.665256 223.857287,105.650858 223.843412,105.63646 C223.839448,105.633188 223.838126,105.631225 223.836144,105.627953 L217.376391,99.2308322 L217.374409,99.2295233 C217.285874,99.1509909 217.172893,99.1025625 217.044715,99.1025625 C216.915216,99.1025625 216.79761,99.1522997 216.709735,99.2308322 L216.707753,99.2295233 L214.487771,101.428431 C214.399236,101.517435 214.343736,101.642432 214.343736,101.7779 C214.343736,101.904861 214.391968,102.017424 214.471253,102.104464 L214.469931,102.106428 L214.487771,102.126061 L214.489753,102.126061 L218.392562,105.99182 L214.489753,109.857578 C214.487771,109.859541 214.487771,109.859541 214.487771,109.859541 L214.469931,109.877211 L214.471253,109.879175 C214.391968,109.968832 214.343736,110.080741 214.343736,110.205739 C214.343736,110.34317 214.399236,110.466204 214.487771,110.555862 L216.707753,112.75477 L216.709735,112.752807 C216.79761,112.832648 216.915216,112.88304 217.044715,112.88304 C217.172893,112.88304 217.285874,112.834612 217.374409,112.756079 L217.376391,112.75477 C217.388944,112.743645 217.399516,112.731211 217.410748,112.72074 L223.836144,106.356341 C223.838126,106.354378 223.84143,106.350451 223.843412,106.349142 C223.857287,106.334744 223.86984,106.320347 223.883054,106.303986 C223.890322,106.295478 223.900894,106.285007 223.908161,106.273882 C223.918733,106.258175 223.927983,106.241814 223.937233,106.225454 C223.942518,106.213019 223.951108,106.200585 223.957054,106.188151 C223.964322,106.172444 223.969607,106.156083 223.972911,106.139722 C223.978197,106.124016 223.983482,106.108309 223.987447,106.093912 C223.992732,106.070352 223.992732,106.048756 223.996036,106.027814 C223.996036,106.015379 224,106.004254 224,105.993783 L223.998018,105.99182 L224,105.99182 Z M164.8738,101.520707 C166.137076,101.520707 167.321067,101.790335 167.93883,101.9474 C168.26522,102.031822 168.423791,101.920568 168.503076,101.654866 C168.503076,101.654866 168.810966,100.194818 168.850609,100.003722 C168.892233,99.8145899 168.920644,99.6149866 168.530165,99.4186555 C167.886634,99.0953637 165.895917,98.7256069 163.906522,98.7256069 C158.583189,98.7256069 157.13095,101.149641 157.13095,106.021924 C157.13095,110.868029 158.583189,113.2901 163.906522,113.2901 C165.895917,113.2901 167.874081,112.924269 168.530165,112.599669 C168.825502,112.451112 168.904787,112.315643 168.850609,112.038816 C168.807663,111.810418 168.503076,110.414504 168.503076,110.414504 C168.448897,110.148803 168.230863,110.034276 167.93883,110.097102 C167.321067,110.25613 166.137076,110.521832 164.8738,110.521832 C162.104768,110.521832 161.298703,109.324212 161.298703,105.995746 C161.298703,102.693458 162.104768,101.520707 164.8738,101.520707 L164.8738,101.520707 Z M72.7227154,98.7151359 C67.5473808,98.7151359 66,100.906845 66,106.06119 C66,111.371291 68.2140363,113.273739 73.4144779,113.273739 C75.6833531,113.273739 77.5227673,112.745608 78.3770642,112.401374 C78.6109552,112.306481 78.7080795,112.049287 78.64333,111.79602 L78.2647436,110.248931 C78.1953692,109.989774 77.9786566,109.893572 77.6509449,109.981267 C76.9248255,110.178907 75.6324785,110.551936 74.1102046,110.551936 C72.8020005,110.551936 71.8955076,110.366076 71.22687,109.970141 C70.4538403,109.468843 70.0812003,108.833384 70.0812003,107.726732 L78.695526,107.726732 C79.2036113,107.726732 79.3357531,107.439434 79.3357531,107.038264 L79.3357531,105.77062 C79.3357531,103.444751 79.0166306,101.701331 78.0295312,100.510911 C77.0166641,99.3237622 75.3622484,98.7151359 72.7227154,98.7151359 L72.7227154,98.7151359 Z M70.0792182,105.260159 C70.0792182,105.260159 70.0884681,104.215678 70.2232528,103.20261 C70.4036264,101.863632 71.3167264,101.408144 72.6976085,101.406835 C74.0778299,101.408144 74.9889478,101.863632 75.1693214,103.20261 C75.3060881,104.215678 75.3140167,105.260159 75.3140167,105.260159 L70.0792182,105.260159 Z M153.644388,99.1882938 L150.417485,99.1882938 C150.146594,99.1882938 149.990006,99.3453586 149.990006,99.61106 L149.990006,112.435405 C149.990006,112.695871 150.145272,112.858171 150.415502,112.858171 L153.644388,112.858171 C153.914618,112.858171 154.067902,112.689981 154.067902,112.435405 L154.067902,99.6090967 C154.067902,99.3473219 153.904047,99.1882938 153.644388,99.1882938 L153.644388,99.1882938 Z M153.309408,92.2918379 L150.750482,92.2918379 C150.21729,92.2918379 149.990006,92.6131665 149.990006,93.1733644 L149.990006,96.1078594 C149.990006,96.6680573 150.21729,96.8611162 150.750482,96.8611162 L153.309408,96.8611162 C153.842601,96.8611162 154.069885,96.6680573 154.069885,96.1078594 L154.069885,93.1733644 C154.069885,92.6131665 153.842601,92.2918379 153.309408,92.2918379 L153.309408,92.2918379 Z M146.806048,110.527067 C146.750549,110.262675 146.560925,110.152075 146.305231,110.191341 C145.900216,110.271837 145.234882,110.391599 144.474406,110.391599 C143.114006,110.391599 142.767794,109.802605 142.767794,108.774485 L142.767794,101.811931 L146.314481,101.811931 C146.560925,101.811931 146.741299,101.640469 146.741299,101.415997 L146.741299,99.5881547 C146.741299,99.3525574 146.553658,99.1935293 146.314481,99.1935293 L142.759205,99.1935293 L142.759205,94.9835368 C142.759205,94.7584105 142.562314,94.5300121 142.281512,94.5797493 C142.025818,94.6229421 139.141162,95.1262041 139.141162,95.1262041 C138.79495,95.2047365 138.685272,95.3722723 138.685272,95.7420292 L138.685272,108.963617 C138.685272,112.106878 140.261724,113.271775 143.43511,113.271775 C145.220346,113.271775 146.49089,112.886966 146.864191,112.779639 L146.865512,112.779639 C147.078261,112.711577 147.197188,112.519173 147.157546,112.283576 C147.121207,112.072847 146.865512,110.809129 146.806048,110.527067 L146.806048,110.527067 Z M133.553545,99.4880259 C132.677444,98.9899994 131.372544,98.7256069 129.511326,98.7256069 C126.66433,98.7256069 124.163546,99.4382886 123.578158,99.6738859 C123.325767,99.777287 123.233929,99.9624926 123.28216,100.184347 C123.321803,100.359081 123.689157,102.035094 123.689157,102.035094 C123.716246,102.163364 123.827906,102.245823 123.960048,102.245823 C124.096815,102.245823 126.920686,101.490603 128.631922,101.490603 C129.511326,101.490603 130.149571,101.571098 130.522211,101.754995 C131.079189,102.017424 131.171027,102.467023 131.171027,103.177087 L131.176313,103.889114 L126.530867,104.627973 C124.588382,104.917234 122.408042,105.36356 122.408042,108.738491 C122.408042,112.873878 125.808712,113.277665 128.894885,113.277665 C129.556254,113.277665 130.72571,113.267194 132.677444,112.873878 C134.517519,112.504775 135.256192,112.047978 135.256192,110.134405 L135.256192,102.88848 C135.256192,101.41207 134.884874,100.200053 133.553545,99.4880259 L133.553545,99.4880259 Z M131.176313,110.400106 C130.830762,110.505471 129.989019,110.688059 129.005223,110.688059 C127.942142,110.688059 126.502457,110.52903 126.502457,108.685482 C126.502457,107.103708 127.268219,106.973475 128.34055,106.761437 L131.176313,106.315111 L131.176313,110.400106 Z M181.878471,99.4880259 C180.999067,98.9867272 179.694828,98.7223347 177.829646,98.7223347 C174.980668,98.7223347 172.477902,99.4363253 171.892513,99.6738859 C171.63814,99.7753236 171.546302,99.9611837 171.595194,100.182383 C171.634837,100.357772 172.002191,102.035094 172.002191,102.036403 C172.02928,102.165327 172.14094,102.249095 172.274403,102.247132 C172.409849,102.247132 175.237023,101.492566 176.952224,101.492566 C177.829646,101.492566 178.469212,101.572407 178.842513,101.756304 C179.400812,102.018733 179.482079,102.468986 179.482079,103.181013 L179.482079,103.89304 L174.847865,104.6319 C172.903398,104.923124 170.719755,105.370759 170.719755,108.747653 C170.719755,112.888275 174.12505,113.2901 177.213204,113.2901 C177.876556,113.2901 179.047993,113.280937 180.999067,112.888275 C182.842446,112.519173 183.583101,112.060413 183.583101,110.14553 L183.583101,102.889789 C183.583101,101.414034 183.2098,100.200053 181.878471,99.4880259 L181.878471,99.4880259 Z M179.509168,110.409268 C179.160975,110.514633 178.30866,110.69853 177.323543,110.69853 C176.258479,110.69853 174.76858,110.541465 174.76858,108.693989 C174.76858,107.110907 175.586538,106.980674 176.658208,106.767982 L179.509168,106.320347 L179.509168,110.409268 L179.509168,110.409268 Z" id="Fill-16"></path>
            </g>
        </g>
    </g>
</svg>